<svg height="1100" viewBox="0 0 1350 1100" xmlns="http://www.w3.org/2000/svg" width="1350" xmlns:xlink="http://www.w3.org/1999/xlink" xmlns:ev="http://www.w3.org/2001/xml-events"><style type="text/css"><![CDATA[
.st1 {fill:#000000;font-family:Arial;font-size:8.25pt}
.st8 {fill:#303030;font-family:Arial;font-size:10.5pt;font-weight:bold}
.st6 {fill:#303030;font-family:Arial;font-size:12.75pt;font-weight:bold}
.st11 {fill:#303030;font-family:Arial;font-size:6pt}
.st10 {fill:#303030;font-family:Arial;font-size:7.5pt;font-weight:bold}
.st7 {fill:#303030;font-family:Arial;font-size:7.5pt}
.st5 {fill:#303030;font-family:Arial;font-size:8.25pt}
.st3 {fill:#303030}
.st2 {fill:#c00000;font-family:Arial;font-size:8.25pt}
.st4 {fill:#ffffff;font-family:Arial;font-size:8.25pt}
.st9 {font-size:6pt}
.st12 {font-size:7.5pt}
.st13 {font-weight:bold}
]]></style><defs><linearGradient x2="0%" y2="100%" id="lg1" y1="0%" x1="0%"><stop stop-color="#fbfcfa" offset="0"/><stop stop-color="#eff3ea" offset="1"/></linearGradient><linearGradient x2="0%" y2="100%" id="lg2" y1="0%" x1="0%"><stop stop-color="#e9edf4" offset="0"/><stop stop-color="#eff3ea" offset="1"/></linearGradient><linearGradient x2="0%" y2="100%" id="lg3" y1="0%" x1="0%"><stop stop-color="#f4e9e9" offset="0"/><stop stop-color="#eff3ea" offset="1"/></linearGradient></defs><g id="page1" transform="translate(5,5)"><g id="shape1" transform="translate(203.52,372)"><path fill="none" d="M0,0L36.4,0" stroke-width="8" stroke="#c0b8ce"/><path fill="#c0b8ce" d="M58.5,0L36.4,-5.5L36.4,5.5L58.5,0" stroke-linecap="round" stroke-width="1" stroke="#c0b8ce"/></g><g id="shape2" transform="translate(204,590)"><path fill="none" d="M0,0L36.4,0" stroke-width="8" stroke="#fac9b0"/><path fill="#fac9b0" d="M58.5,0L36.4,-5.5L36.4,5.5L58.5,0" stroke-linecap="round" stroke-width="1" stroke="#fac9b0"/></g><g id="shape3" transform="translate(204,672)"><path fill="none" d="M0,0L36.4,0" stroke-width="8" stroke="#b2c1db"/><path fill="#b2c1db" d="M58.5,0L36.4,-5.5L36.4,5.5L58.5,0" stroke-linecap="round" stroke-width="1" stroke="#b2c1db"/></g><g id="table4" transform="translate(81.24,91)"><g><path fill="#eff3ea" d="M0,0L139.5,0L139.5,48.3L0,48.3L0,0z"/><path fill="none" d="" stroke="#ffffff"/><text class="st1"><tspan x="65" y="27.6">...</tspan></text></g><g><path fill="#cbdab5" d="M0,48.3L139.5,48.3L139.5,96.6L0,96.6L0,48.3z"/><path fill="none" d="" stroke="#ffffff"/><text class="st2"><tspan x="39" y="75.9" class="st3">stringIdsSize</tspan></text></g><g><path fill="#cbdab5" d="M0,96.6L139.5,96.6L139.5,144.9L0,144.9L0,96.6z"/><path fill="none" d="" stroke="#ffffff"/><text class="st4"><tspan x="42" y="124.2" class="st3">stringIdsOff</tspan></text></g><g><path fill="#abb1bf" d="M0,144.9L139.5,144.9L139.5,193.1L0,193.1L0,144.9z"/><path fill="none" d="" stroke="#ffffff"/><text class="st5"><tspan x="42" y="172.5">typeIdsSize</tspan></text></g><g><path fill="#abb1bf" d="M0,193.1L139.5,193.1L139.5,241.4L0,241.4L0,193.1z"/><path fill="none" d="" stroke="#ffffff"/><text class="st5"><tspan x="45" y="220.8">typeIdsOff</tspan></text></g><g><path fill="#c0b8ce" d="M0,241.4L139.5,241.4L139.5,289.7L0,289.7L0,241.4z"/><path fill="none" d="" stroke="#ffffff"/><text class="st5"><tspan x="39" y="269.1">protoIdsSize</tspan></text></g><g><path fill="#c0b8ce" d="M0,289.7L139.5,289.7L139.5,338L0,338L0,289.7z"/><path fill="none" d="" stroke="#ffffff"/><text class="st5"><tspan x="43" y="317.4">protoIdsOff</tspan></text></g><g><path fill="#b1d2df" d="M0,338L139.5,338L139.5,386.3L0,386.3L0,338z"/><path fill="none" d="" stroke="#ffffff"/><text class="st5"><tspan x="42" y="365.6">fieldIdsSize</tspan></text></g><g><path fill="#b1d2df" d="M0,386.3L139.5,386.3L139.5,434.6L0,434.6L0,386.3z"/><path fill="none" d="" stroke="#ffffff"/><text class="st5"><tspan x="45" y="413.9">fieldIdsOff</tspan></text></g><g><path fill="#fac9b0" d="M0,434.6L139.5,434.6L139.5,482.9L0,482.9L0,434.6z"/><path fill="none" d="" stroke="#ffffff"/><text class="st5"><tspan x="34" y="462.2">methodIdsSize</tspan></text></g><g><path fill="#fac9b0" d="M0,482.9L139.5,482.9L139.5,531.1L0,531.1L0,482.9z"/><path fill="none" d="" stroke="#ffffff"/><text class="st5"><tspan x="37" y="510.5">methodIdsOff</tspan></text></g><g><path fill="#b2c1db" d="M0,531.1L139.5,531.1L139.5,579.4L0,579.4L0,531.1z"/><path fill="none" d="" stroke="#ffffff"/><text class="st5"><tspan x="35" y="558.8">classDefsSize</tspan></text></g><g><path fill="#b2c1db" d="M0,579.4L139.5,579.4L139.5,627.7L0,627.7L0,579.4z"/><path fill="none" d="" stroke="#ffffff"/><text class="st5"><tspan x="39" y="607.1">classDefsOff</tspan></text></g><g><path fill="#e9edf4" d="M0,627.7L139.5,627.7L139.5,676L0,676L0,627.7z"/><path fill="none" d="" stroke="#ffffff"/><text class="st5"><tspan x="65" y="655.4">...</tspan></text></g></g><g id="shape5" transform="translate(94.59,49)"><text class="st6"><tspan x="12.4" y="20.8">DexHeader</tspan></text></g><g id="table6" transform="translate(262.31,652)"><g><path fill="#b2c1db" d="M0,0L64.7,0L64.7,40L0,40L0,0z"/><path fill="none" d="M64.7,0L64.7,40" stroke="#a0a0a4"/><text class="st7"/></g><g><path fill="#b2c1db" d="M64.7,0L129.3,0L129.3,40L64.7,40L64.7,0z"/><path fill="none" d="M64.7,0L64.7,40M129.3,0L129.3,40" stroke="#a0a0a4"/><text class="st7"/></g><g><path fill="#b2c1db" d="M129.3,0L194,0L194,40L129.3,40L129.3,0z"/><path fill="none" d="M129.3,0L129.3,40" stroke="#a0a0a4"/><text class="st7"/></g></g><g id="shape7" transform="translate(289,695.38)"><text class="st8"><tspan x="10.4" y="20.3">DexClassDef</tspan></text></g><g id="table8" transform="translate(295,728)"><g><path fill="#e9edf4" d="M0,0L230,0L230,27L0,27L0,0z" stroke="#a0a0a4"/><text class="st7"><tspan x="9" y="17">u4  classIdx                                 </tspan><tspan class="st9">/*DexTypeId索引*/</tspan></text></g><g><path fill="#e9edf4" d="M0,27L230,27L230,60.4L0,60.4L0,27z" stroke="#a0a0a4"/><text class="st7"><tspan x="9" y="47.2">u4  accessFlags    </tspan><tspan class="st9">/*标志：private protected volatile*/</tspan></text></g><g><path fill="#e9edf4" d="M0,60.4L230,60.4L230,90.4L0,90.4L0,60.4z" stroke="#a0a0a4"/><text class="st7"><tspan x="9" y="78.9">u4  superclassIdx </tspan><tspan class="st9">                           /*DexTypeId索引*/</tspan></text></g><g><path fill="#e9edf4" d="M0,90.4L230,90.4L230,120.4L0,120.4L0,90.4z" stroke="#a0a0a4"/><text class="st7"><tspan x="9" y="108.9">u4  interfacesOff</tspan><tspan class="st9">                     /*DexTypeList的偏移量*/</tspan></text></g><g><path fill="#e9edf4" d="M0,120.4L230,120.4L230,150.4L0,150.4L0,120.4z" stroke="#a0a0a4"/><text class="st7"><tspan x="9" y="138.9">u4  sourceFileIdx</tspan><tspan class="st9">                            /*DexStringId索引*/</tspan></text></g><g><path fill="#e9edf4" d="M0,150.4L230,150.4L230,179.4L0,179.4L0,150.4z" stroke="#a0a0a4"/><text class="st7"><tspan x="9" y="168.4">u4  annotationsOff </tspan><tspan class="st9">                         /*注解数据偏移量*/</tspan></text></g><g><path fill="#e9edf4" d="M0,179.4L230,179.4L230,209.4L0,209.4L0,179.4z" stroke="#a0a0a4"/><text class="st7"><tspan x="9" y="197.9">u4  classDataOff </tspan><tspan class="st9">                    /*DexClassData偏移量*/</tspan></text></g><g><path fill="#e9edf4" d="M0,209.4L230,209.4L230,239.4L0,239.4L0,209.4z" stroke="#a0a0a4"/><text class="st7"><tspan x="9" y="227.9">u4  staticValuesOff </tspan><tspan class="st9">             /*静态初始化数据偏移量*/</tspan></text></g></g><g id="shape9" transform="matrix(-0.71,0.71,-0.71,-0.71,454.9,701)"><path fill="#000000" fill-opacity="0.08" d="M-1.2,31.6L28.7,1.7L26.3,-0.7L36.8,-1.6L35.9,8.9L33.5,6.5L3.6,36.4L-1.2,31.6z"/><path fill="url(#lg1)" d="M-1.2,34.4L28.7,4.5L26.3,2.1L36.8,1.2L35.9,11.7L33.5,9.3L3.6,39.2L-1.2,34.4z" stroke="#71893f"/></g><g id="table10" transform="translate(866,200)"><g><path fill="#cbdab5" d="M0,0L105,0L105,40L0,40L0,0z" stroke="#a0a0a4"/><text class="st7"/></g><g><path fill="#cbdab5" d="M0,40L105,40L105,80L0,80L0,40z" stroke="#a0a0a4"/><text class="st7"/></g><g><path fill="#cbdab5" d="M0,80L105,80L105,120L0,120L0,80z" stroke="#a0a0a4"/><text class="st7"/></g><g><path fill="#cbdab5" d="M0,120L105,120L105,160L0,160L0,120z" stroke="#a0a0a4"/><text class="st7"/></g><g><path fill="#cbdab5" d="M0,160L105,160L105,200L0,200L0,160z" stroke="#a0a0a4"/><text class="st7"/></g><g><path fill="#cbdab5" d="M0,200L105,200L105,240L0,240L0,200z" stroke="#a0a0a4"/><text class="st7"/></g><g><path fill="#cbdab5" d="M0,240L105,240L105,280L0,280L0,240z" stroke="#a0a0a4"/><text class="st7"/></g><g><path fill="#cbdab5" d="M0,280L105,280L105,320L0,320L0,280z" stroke="#a0a0a4"/><text class="st7"/></g></g><g id="table11" transform="translate(703,575.88)"><g><path fill="#eff3ea" d="M0,0L277.2,0L277.2,30L0,30L0,0z" stroke="#a0a0a4"/><text class="st7"><tspan x="9" y="18">...</tspan></text></g><g><path fill="#eff3ea" d="M0,30L277.2,30L277.2,58.1L0,58.1L0,30z" stroke="#a0a0a4"/><text class="st7"><tspan x="9" y="47">0000 0313: println</tspan></text></g><g><path fill="#eff3ea" d="M0,58.1L277.2,58.1L277.2,86.1L0,86.1L0,58.1z" stroke="#a0a0a4"/><text class="st7"/></g><g><path fill="#eff3ea" d="M0,86.1L277.2,86.1L277.2,116.1L0,116.1L0,86.1z" stroke="#a0a0a4"/><text class="st7"><tspan x="9" y="104.1">...</tspan></text></g></g><g id="shape12" transform="translate(864.29,166)"><text class="st8"><tspan x="14.4" y="20.3">DexStringId</tspan></text></g><g id="shape13" transform="translate(779.08,545.77)"><text class="st8"><tspan x="18.4" y="20.3">StringPool</tspan></text></g><g id="shape14" transform="translate(709.08,638.38)"><text class="st7"><tspan x="4" y="12.5">0000 031c: L/com/example/testapplication1/MainActivity</tspan></text></g><g id="shape15" transform="translate(877,325)"><text class="st7"><tspan x="18" y="18.8">0000 031c</tspan></text></g><g id="shape16" transform="matrix(0.05,1,-1,0.05,971,336)"><path fill="none" d="M0,0C63.9,-77.3,236.4,-81.7,311.4,-3.2" stroke="#6d6d6d"/><path fill="#6d6d6d" d="M314.4,0L313,-5.9C312.7,-4.9,312.2,-4,311.4,-3.2C310.6,-2.5,309.6,-2,308.6,-1.8L314.4,0" stroke-linecap="round" stroke-width="1" stroke="#6d6d6d"/></g><g id="table17" transform="translate(261.46,569.5)"><g><path fill="#fac9b0" d="M0,0L64.7,0L64.7,40L0,40L0,0z"/><path fill="none" d="M64.7,0L64.7,40" stroke="#a0a0a4"/><text class="st7"/></g><g><path fill="#fac9b0" d="M64.7,0L129.3,0L129.3,40L64.7,40L64.7,0z"/><path fill="none" d="M64.7,0L64.7,40M129.3,0L129.3,40" stroke="#a0a0a4"/><text class="st7"/></g><g><path fill="#fac9b0" d="M129.3,0L194,0L194,40L129.3,40L129.3,0z"/><path fill="none" d="M129.3,0L129.3,40" stroke="#a0a0a4"/><text class="st7"/></g></g><g id="shape18" transform="translate(404,538.38)"><text class="st10"><tspan x="22.4" y="18.8">DexMethodId</tspan></text></g><g id="shape19" transform="matrix(0.71,0.71,-0.71,0.71,465.3,562.6)"><path fill="#000000" fill-opacity="0.08" d="M1.6,34.4L31.5,4.5L29.1,2.1L39.6,1.2L38.7,11.7L36.3,9.3L6.4,39.2L1.6,34.4z"/><path fill="url(#lg1)" d="M-1.2,34.4L28.7,4.5L26.3,2.1L36.8,1.2L35.9,11.7L33.5,9.3L3.6,39.2L-1.2,34.4z" stroke="#71893f"/></g><g id="table20" transform="translate(496.12,545.77)"><g><path fill="#fdefe9" d="M0,0L191.9,0L191.9,27.5L0,27.5L0,0z" stroke="#a0a0a4"/><text class="st7"><tspan x="9" y="17.2">u2  classIdx                 </tspan><tspan class="st9">  /*DexTypeId索引*/</tspan></text></g><g><path fill="#fdefe9" d="M0,27.5L191.9,27.5L191.9,57.5L0,57.5L0,27.5z" stroke="#a0a0a4"/><text class="st11"><tspan x="9" y="46" class="st12">u2  protoIdx                 </tspan><tspan>  /*DexProtoId索引*/</tspan></text></g><g><path fill="#fdefe9" d="M0,57.5L191.9,57.5L191.9,96.5L0,96.5L0,57.5z" stroke="#a0a0a4"/><text class="st7"><tspan x="9" y="80.5">u4  nameIdx                </tspan><tspan class="st9">  /*DexStringId索引*/</tspan></text></g></g><g id="table21" transform="translate(261.46,464.53)"><g><path fill="#b1d2df" d="M0,0L64.7,0L64.7,40L0,40L0,0z"/><path fill="none" d="M64.7,0L64.7,40" stroke="#a0a0a4"/><text class="st7"/></g><g><path fill="#b1d2df" d="M64.7,0L129.3,0L129.3,40L64.7,40L64.7,0z"/><path fill="none" d="M64.7,0L64.7,40M129.3,0L129.3,40" stroke="#a0a0a4"/><text class="st7"/></g><g><path fill="#b1d2df" d="M129.3,0L194,0L194,40L129.3,40L129.3,0z"/><path fill="none" d="M129.3,0L129.3,40" stroke="#a0a0a4"/><text class="st7"/></g></g><g id="shape22" transform="matrix(0.71,0.71,-0.71,0.71,465.3,457.7)"><path fill="#000000" fill-opacity="0.08" d="M1.6,34.4L31.5,4.5L29.1,2.1L39.6,1.2L38.7,11.7L36.3,9.3L6.4,39.2L1.6,34.4z"/><path fill="url(#lg1)" d="M-1.2,34.4L28.7,4.5L26.3,2.1L36.8,1.2L35.9,11.7L33.5,9.3L3.6,39.2L-1.2,34.4z" stroke="#71893f"/></g><g id="table23" transform="translate(497.12,441)"><g><path fill="#e9f1f5" d="M0,0L190.9,0L190.9,27L0,27L0,0z" stroke="#a0a0a4"/><text class="st7"><tspan x="9" y="17">u2  classIdx                 </tspan><tspan class="st9">/*DexTypeId索引*/</tspan></text></g><g><path fill="#e9f1f5" d="M0,27L190.9,27L190.9,57.9L0,57.9L0,27z" stroke="#a0a0a4"/><text class="st7"><tspan x="9" y="45.9">u2  typeIdx</tspan><tspan class="st9">                       /*DexTypeId索引*/</tspan></text></g><g><path fill="#e9f1f5" d="M0,57.9L190.9,57.9L190.9,87.9L0,87.9L0,57.9z" stroke="#a0a0a4"/><text class="st11"><tspan x="9" y="76.4" class="st12">u4  nameIdx                </tspan><tspan>/*DexStringId索引*/</tspan></text></g></g><g id="shape24" transform="translate(412.76,425.38)"><text class="st10"><tspan x="28.4" y="18.8">DexFieldId</tspan></text></g><g id="table25" transform="translate(262.29,352.53)"><g><path fill="#c0b8ce" d="M0,0L64.7,0L64.7,40L0,40L0,0z"/><path fill="none" d="M64.7,0L64.7,40" stroke="#a0a0a4"/><text class="st7"/></g><g><path fill="#c0b8ce" d="M64.7,0L129.3,0L129.3,40L64.7,40L64.7,0z"/><path fill="none" d="M64.7,0L64.7,40M129.3,0L129.3,40" stroke="#a0a0a4"/><text class="st7"/></g><g><path fill="#c0b8ce" d="M129.3,0L194,0L194,40L129.3,40L129.3,0z"/><path fill="none" d="M129.3,0L129.3,40" stroke="#a0a0a4"/><text class="st7"/></g></g><g id="shape26" transform="matrix(0.71,0.71,-0.71,0.71,466.1,345.7)"><path fill="#000000" fill-opacity="0.08" d="M1.6,34.4L31.5,4.5L29.1,2.1L39.6,1.2L38.7,11.7L36.3,9.3L6.4,39.2L1.6,34.4z"/><path fill="url(#lg1)" d="M-1.2,34.4L28.7,4.5L26.3,2.1L36.8,1.2L35.9,11.7L33.5,9.3L3.6,39.2L-1.2,34.4z" stroke="#71893f"/></g><g id="table27" transform="translate(497.95,308)"><g><path fill="#edeaf0" d="M0,0L187.9,0L187.9,40L0,40L0,0z" stroke="#a0a0a4"/><text class="st7"><tspan x="9" y="17.5">u4  shortyIdx                 </tspan><tspan class="st9">/∗DexStringId索</tspan><tspan x="9" y="29.5" class="st9">引，例如 "VL" 代表返回Void,参数为一个对象∗/</tspan></text></g><g><path fill="#edeaf0" d="M0,40L187.9,40L187.9,74.3L0,74.3L0,40z" stroke="#a0a0a4"/><text class="st7"><tspan x="9" y="60.6">u4  returnTypeIdx       </tspan><tspan class="st9"> /*DexTypeId索引*/</tspan></text></g><g><path fill="#edeaf0" d="M0,74.3L187.9,74.3L187.9,112.3L0,112.3L0,74.3z" stroke="#a0a0a4"/><text class="st7"><tspan x="9" y="90.3">u4  parametersOff                                  </tspan><tspan x="9" y="102.3" class="st9">/*DexTypeList的偏移量*/</tspan></text></g></g><g id="shape28" transform="translate(412.76,308)"><text class="st10"><tspan x="26.4" y="18.8">DexProtoId</tspan></text></g><g id="table29" transform="translate(713.48,223)"><g><path fill="#ffffff" d="M0,0L99,0L99,30L0,30L0,0z" stroke="#a0a0a4"/><text class="st7"><tspan x="9" y="18">u4  descriptorIdx</tspan></text></g></g><g id="shape30" transform="translate(709.08,490.38)"><text class="st8"><tspan x="18.4" y="20.3">DexTypeId</tspan></text></g><g id="shape31" transform="matrix(0.71,0.71,-0.71,0.71,981.2,198.3)"><path fill="#000000" fill-opacity="0.08" d="M1.6,34.4L31.5,4.5L29.1,2.1L39.6,1.2L38.7,11.7L36.3,9.3L6.4,39.2L1.6,34.4z"/><path fill="url(#lg1)" d="M-1.2,34.4L28.7,4.5L26.3,2.1L36.8,1.2L35.9,11.7L33.5,9.3L3.6,39.2L-1.2,34.4z" stroke="#71893f"/></g><g id="table32" transform="translate(1012.03,209.08)"><g><path fill="#ffffff" d="M0,0L99,0L99,30L0,30L0,0z" stroke="#a0a0a4"/><text class="st7"><tspan x="9" y="18">u4 stringDataOff</tspan></text></g></g><g id="shape33" transform="translate(219,189)"><path fill="none" d="M0,0L620.9,0" stroke-width="8" stroke="#cbdab5"/><path fill="#cbdab5" d="M643,0L620.9,-5.5L620.9,5.5L643,0" stroke-linecap="round" stroke-width="1" stroke="#cbdab5"/></g><g id="table34" transform="translate(729,278.79)"><g><path fill="#c9c9c9" d="M0,0L68,0L68,42.5L0,42.5L0,0z" stroke="#c0b8ce"/><text class="st7"/></g><g><path fill="#c9c9c9" d="M0,42.5L68,42.5L68,85L0,85L0,42.5z" stroke="#c0b8ce"/><text class="st7"/></g><g><path fill="#c9c9c9" d="M0,85L68,85L68,127.5L0,127.5L0,85z" stroke="#c0b8ce"/><text class="st7"/></g><g><path fill="#c9c9c9" d="M0,127.5L68,127.5L68,170L0,170L0,127.5z" stroke="#a0a0a4"/><text class="st7"/></g><g><path fill="#c9c9c9" d="M0,170L68,170L68,212.5L0,212.5L0,170z" stroke="#a0a0a4"/><text class="st7"><tspan x="31" y="194.3" class="st13">3</tspan></text></g></g><g id="shape35" transform="matrix(0.71,-0.71,0.71,0.71,744.6,275.6)"><path fill="#000000" fill-opacity="0.08" d="M-0.8,25.7L19.1,5.8L17.5,4.3L24.4,3.6L23.8,10.6L22.2,9L2.4,28.9L-0.8,25.7z"/><path fill="url(#lg1)" d="M-0.8,22.9L19.1,3L17.5,1.4L24.4,.8L23.8,7.8L22.2,6.2L2.4,26L-0.8,22.9z" stroke="#71893f"/></g><g id="shape36" transform="translate(220,287)"><path fill="none" d="M0,0L479.9,0" stroke-width="8" stroke="#abb1bf"/><path fill="#abb1bf" d="M502,0L479.9,-5.5L479.9,5.5L502,0" stroke-linecap="round" stroke-width="1" stroke="#abb1bf"/></g><g id="shape37" transform="translate(525,737)"><path fill="none" d="M0,0L194.3,-253.5" stroke="#6d6d6d"/><path fill="#6d6d6d" d="M197,-257L191.5,-254.7C192.5,-254.6,193.5,-254.2,194.3,-253.5C195.2,-252.8,195.8,-252,196.2,-251.1L197,-257" stroke-linecap="round" stroke-width="1" stroke="#6d6d6d"/></g><g id="shape38" transform="matrix(0.39,-0.92,0.92,0.39,805,469)"><path fill="none" d="M0,0L131.4,0" stroke="#6d6d6d"/><path fill="#6d6d6d" d="M135.8,0L130.6,-3C131.1,-2.1,131.4,-1.1,131.4,0C131.4,1.1,131.1,2.1,130.6,3L135.8,0" stroke-linecap="round" stroke-width="1" stroke="#6d6d6d"/></g><g id="table39" transform="translate(582.32,723)"><g><path fill="#f4e9e9" d="M0,0L161.7,0L161.7,54.5L0,54.5L0,0z" stroke="#a0a0a4"/><text class="st7"><tspan x="9" y="30.3">DexClassDataHeader header</tspan></text></g><g><path fill="#f4e9e9" d="M0,54.5L161.7,54.5L161.7,106.4L0,106.4L0,54.5z" stroke="#a0a0a4"/><text class="st7"><tspan x="9" y="83.4">DexField staticFields[]</tspan></text></g><g><path fill="#f4e9e9" d="M0,106.4L161.7,106.4L161.7,158.3L0,158.3L0,106.4z" stroke="#a0a0a4"/><text class="st7"><tspan x="9" y="135.3">DexField instanceFields[]</tspan></text></g><g><path fill="#f4e9e9" d="M0,158.3L161.7,158.3L161.7,210.1L0,210.1L0,158.3z" stroke="#a0a0a4"/><text class="st7"><tspan x="9" y="187.2">DexMethod directMethods[]</tspan></text></g><g><path fill="#f4e9e9" d="M0,210.1L161.7,210.1L161.7,262L0,262L0,210.1z" stroke="#a0a0a4"/><text class="st7"><tspan x="9" y="239.1">DexMethod virtualMethods[]</tspan></text></g></g><g id="table40" transform="translate(776.25,718)"><g><path fill="#f4e9e9" d="M0,0L128,0L128,26L0,26L0,0z" stroke="#a0a0a4"/><text class="st7"><tspan x="9" y="16">u4 staticFieldsSize</tspan></text></g><g><path fill="#f4e9e9" d="M0,26L128,26L128,52L0,52L0,26z" stroke="#a0a0a4"/><text class="st7"><tspan x="9" y="42">u4 instanceFieldsSize</tspan></text></g><g><path fill="#f4e9e9" d="M0,52L128,52L128,78L0,78L0,52z" stroke="#a0a0a4"/><text class="st7"><tspan x="9" y="68">u4 directMethodsSize</tspan></text></g><g><path fill="#f4e9e9" d="M0,78L128,78L128,104L0,104L0,78z" stroke="#a0a0a4"/><text class="st7"><tspan x="9" y="94">u4 virtualMethodsSize</tspan></text></g></g><g id="shape41" transform="translate(582.32,692)"><text class="st8"><tspan x="6.4" y="20.3">DexClassData</tspan></text></g><g id="shape42" transform="translate(779.08,692)"><text class="st10"><tspan x="6" y="18.8">DexClassDataHeader</tspan></text></g><g id="table43" transform="translate(779.25,842)"><g><path fill="#f4e9e9" d="M0,0L172.8,0L172.8,27L0,27L0,0z" stroke="#a0a0a4"/><text class="st7"><tspan x="9" y="17">u4 fieldIdx </tspan><tspan class="st9">                  /*DexFiledId索引*/</tspan></text></g><g><path fill="#f4e9e9" d="M0,27L172.8,27L172.8,53L0,53L0,27z" stroke="#a0a0a4"/><text class="st7"><tspan x="9" y="43">u4 accessFlags</tspan></text></g></g><g id="table44" transform="translate(776.25,919)"><g><path fill="#f4e9e9" d="M0,0L172.8,0L172.8,27L0,27L0,0z" stroke="#a0a0a4"/><text class="st7"><tspan x="9" y="17">u4 methodIdx       </tspan><tspan class="st9">/*DexMethodId索引*/</tspan></text></g><g><path fill="#f4e9e9" d="M0,27L172.8,27L172.8,53L0,53L0,27z" stroke="#a0a0a4"/><text class="st7"><tspan x="9" y="43">u4 accessFlags</tspan></text></g><g><path fill="#f4e9e9" d="M0,53L172.8,53L172.8,82L0,82L0,53z" stroke="#a0a0a4"/><text class="st7"><tspan x="9" y="71">u4 codeOff</tspan><tspan class="st9">                 /*字节码文件偏移*/</tspan></text></g></g><g id="shape45" transform="translate(776.25,815.19)"><text class="st10"><tspan x="13.3" y="18.8">DexField</tspan></text></g><g id="shape46" transform="translate(776.25,893.38)"><text class="st10"><tspan x="7" y="18.8">DexMethod</tspan></text></g><g id="table47" transform="translate(1028.66,743)"><g><path fill="#efefef" d="M0,0L192.3,0L192.3,27L0,27L0,0z" stroke="#a0a0a4"/><text class="st7"><tspan x="9" y="17">u2  registersSize    </tspan><tspan class="st9">/*方法需求寄存器个数*/</tspan></text></g><g><path fill="#efefef" d="M0,27L192.3,27L192.3,57L0,57L0,27z" stroke="#a0a0a4"/><text class="st7"><tspan x="9" y="45.5">u2  insSize</tspan><tspan class="st9">                          /∗方法参数个数∗/</tspan></text></g><g><path fill="#efefef" d="M0,57L192.3,57L192.3,87L0,87L0,57z" stroke="#a0a0a4"/><text class="st7"><tspan x="9" y="75.5">u2  outsSize       </tspan><tspan class="st9">/∗外部方法使用寄存器数∗/</tspan></text></g><g><path fill="#efefef" d="M0,87L192.3,87L192.3,117L0,117L0,87z" stroke="#a0a0a4"/><text class="st7"><tspan x="9" y="105">u2  triesSize</tspan></text></g><g><path fill="#efefef" d="M0,117L192.3,117L192.3,147L0,147L0,117z" stroke="#a0a0a4"/><text class="st7"><tspan x="9" y="135.5">u4  debugInfoOff      </tspan><tspan class="st9">/∗调试信息文件偏移∗/</tspan></text></g><g><path fill="#efefef" d="M0,147L192.3,147L192.3,176L0,176L0,147z" stroke="#a0a0a4"/><text class="st7"><tspan x="9" y="165">u4  insnsSize                       </tspan><tspan class="st9">/∗指令个数∗/</tspan></text></g><g><path fill="#efefef" d="M0,176L192.3,176L192.3,206L0,206L0,176z" stroke="#a0a0a4"/><text class="st7"><tspan x="9" y="194.5">u2*  insns                      </tspan><tspan class="st9"> /∗指令起始地址∗/</tspan></text></g><g><path fill="#efefef" d="M0,206L192.3,206L192.3,236L0,236L0,206z" stroke="#a0a0a4"/><text class="st7"><tspan x="9" y="224">... byte codes...</tspan></text></g></g><g id="shape48" transform="translate(1020,983)"><text class="st8"><tspan x="17" y="20.3">DexCode</tspan></text></g><g id="shape49" transform="matrix(0.71,0.71,-0.71,0.71,541.8,896.4)"><path fill="#000000" fill-opacity="0.08" d="M1.6,34.4L31.5,4.5L29.1,2.1L39.6,1.2L38.7,11.7L36.3,9.3L6.4,39.2L1.6,34.4z"/><path fill="url(#lg2)" d="M-1.2,34.4L28.7,4.5L26.3,2.1L36.8,1.2L35.9,11.7L33.5,9.3L3.6,39.2L-1.2,34.4z" stroke="#71893f"/></g><g id="shape50" transform="matrix(0.71,0.71,-0.71,0.71,752.8,732.2)"><path fill="#000000" fill-opacity="0.08" d="M1.9,26.4L24.8,3.5L23,1.6L31,.9L30.3,9L28.5,7.1L5.6,30L1.9,26.4z"/><path fill="url(#lg3)" d="M-0.9,26.4L22,3.5L20.2,1.6L28.2,.9L27.5,9L25.6,7.1L2.7,30L-0.9,26.4z" stroke="#71893f"/></g><g id="shape51" transform="matrix(0.26,0.97,-0.97,0.26,769.1,814.4)"><path fill="#000000" fill-opacity="0.08" d="M1.4,29.5L28.2,2.7L26.1,.5L35.5,-0.3L34.7,9.1L32.5,6.9L5.7,33.8L1.4,29.5z"/><path fill="url(#lg3)" d="M-1.1,30.9L25.8,4.1L23.6,1.9L33.1,1.1L32.2,10.5L30.1,8.4L3.2,35.2L-1.1,30.9z" stroke="#71893f"/></g><g id="shape52" transform="matrix(0.71,0.71,-0.71,0.71,753.8,908.8)"><path fill="#000000" fill-opacity="0.08" d="M1.8,31.1L28.8,4.1L26.6,1.9L36.1,1.1L35.2,10.6L33.1,8.4L6.1,35.4L1.8,31.1z"/><path fill="url(#lg3)" d="M-1.1,31.1L25.9,4.1L23.8,1.9L33.3,1.1L32.4,10.6L30.3,8.4L3.2,35.4L-1.1,31.1z" stroke="#71893f"/></g><g id="shape53" transform="matrix(0.71,0.71,-0.71,0.71,976.1,950.1)"><path fill="#000000" fill-opacity="0.08" d="M1.3,43.8L39.3,5.8L36.3,2.7L49.6,1.5L48.4,14.9L45.4,11.8L7.4,49.8L1.3,43.8z"/><path fill="url(#lg1)" d="M-1.5,43.8L36.5,5.8L33.4,2.7L46.8,1.5L45.6,14.9L42.5,11.8L4.5,49.8L-1.5,43.8z" stroke="#71893f"/></g><g id="shape54" transform="translate(204,484)"><path fill="none" d="M0,0L36.4,0" stroke-width="8" stroke="#b1d2df"/><path fill="#b1d2df" d="M58.5,0L36.4,-5.5L36.4,5.5L58.5,0" stroke-linecap="round" stroke-width="1" stroke="#b1d2df"/></g></g></svg>